<svg xmlns="http://www.w3.org/2000/svg" viewBox="0 0 57.988 57.988" width="64" height="64">
  <rect width="57.988" height="57.988" rx="10" fill="#18181B"/>
  <path d="M 41.978 23.984 L 41.978 18.221 C 41.978 10.977 35.965 5.049 28.615 5.049 C 21.266 5.049 15.252 10.977 15.252 18.221 L 15.252 23.984 C 12.078 27.277 10.241 31.557 10.241 36.332 C 10.241 42.095 12.914 47.363 17.591 50.821 C 17.925 50.985 18.259 51.15 18.593 51.15 L 38.638 51.15 C 38.972 51.15 39.306 50.985 39.64 50.821 C 44.317 47.363 46.99 42.095 46.99 36.332 C 46.99 31.557 45.152 27.112 41.978 23.984 Z M 18.593 21.185 L 18.593 18.221 C 18.593 12.788 23.103 8.342 28.615 8.342 C 34.128 8.342 38.638 12.788 38.638 18.221 L 38.638 21.185 C 35.798 19.374 32.29 18.221 28.615 18.221 C 24.94 18.221 21.433 19.374 18.593 21.185 Z M 38.638 34.85 C 38.471 34.85 38.304 34.85 38.137 34.85 C 37.468 34.85 36.8 34.356 36.466 33.698 C 35.965 31.887 34.629 30.405 33.125 29.417 C 32.29 28.923 32.123 27.935 32.624 27.112 C 33.125 26.289 34.128 26.124 34.963 26.618 C 37.134 28.1 38.805 30.24 39.64 32.71 C 39.974 33.698 39.473 34.521 38.638 34.85 Z" fill="#FF5722" fill-rule="nonzero"/>
</svg>
